<svg xmlns="http://www.w3.org/2000/svg" viewBox="57 23 90.549 43.5">
  <defs>
    <style>
      .cls-1 {
        fill: #fff;
      }

      .cls-2 {
        fill: #2ca8dd;
      }
    </style>
  </defs>
  <g id="lebel_auction" transform="translate(57 23)">
    <g id="Group_1" data-name="Group 1">
      <path id="Path_1" data-name="Path 1" class="cls-1" d="M6.783,26.581V0H.118V2.8H3.431V26.581H0v2.8H9.938v-2.8Z"/>
      <path id="Path_2" data-name="Path 2" class="cls-1" d="M211.144,26.581V0h-6.665V2.8h3.352V26.581H204.4v2.8h9.938v-2.8Z" transform="translate(-123.789)"/>
      <path id="Path_3" data-name="Path 3" class="cls-1" d="M45.344,40.119a6.728,6.728,0,0,1-5.324,2.6,6.862,6.862,0,1,1,6.665-8.361h-6.7v2.958h9.781V35.859a9.859,9.859,0,1,0-.986,4.22H45.344Z" transform="translate(-18.29 -15.746)"/>
      <path id="Path_4" data-name="Path 4" class="cls-1" d="M165.1,40.179a6.728,6.728,0,0,1-5.324,2.6,6.862,6.862,0,1,1,6.665-8.361h-6.665v2.958h9.781V35.92a9.859,9.859,0,1,0-.986,4.22H165.1Z" transform="translate(-90.843 -15.806)"/>
      <path id="Path_5" data-name="Path 5" class="cls-2" d="M98.6,10.254a9.638,9.638,0,0,0-6.113,2.169V0H85.818V2.8h3.313V26.581H85.7v2.8h6.783v-12.3A6.824,6.824,0,1,1,98.6,26.936a6.457,6.457,0,0,1-3-.71h0v3.194a9.813,9.813,0,1,0,3-19.167Z" transform="translate(-51.902)"/>
    </g>
    <g id="Group_2" data-name="Group 2" transform="translate(20.942 37.269)">
      <path id="Path_6" data-name="Path 6" class="cls-1" d="M56.492,102.252a4.009,4.009,0,0,0,.079,1.025h-.749l-.079-.552H55.7a1.55,1.55,0,0,1-1.3.631,1.222,1.222,0,0,1-1.3-1.223c0-1.025.947-1.617,2.6-1.617v-.079a.861.861,0,0,0-.986-.986,2.262,2.262,0,0,0-1.144.316l-.2-.513A2.614,2.614,0,0,1,54.8,98.9c1.341,0,1.656.907,1.656,1.775v1.578Zm-.789-1.144c-.868,0-1.814.118-1.814.986a.7.7,0,0,0,.749.749,1.111,1.111,0,0,0,1.065-.71.5.5,0,0,0,.039-.237v-.789Z" transform="translate(-53.1 -97.165)"/>
      <path id="Path_7" data-name="Path 7" class="cls-1" d="M77.428,102.255a11.092,11.092,0,0,0,.039,1.183h-.71l-.039-.71h0a1.6,1.6,0,0,1-1.42.789c-.67,0-1.5-.394-1.5-1.893V99.1h.789v2.366c0,.828.276,1.38.947,1.38a1.1,1.1,0,0,0,1.025-.71,1.167,1.167,0,0,0,.079-.394V99.1h.789Z" transform="translate(-65.636 -97.286)"/>
      <path id="Path_8" data-name="Path 8" class="cls-1" d="M98.052,103.159a3.453,3.453,0,0,1-1.223.237,2.03,2.03,0,0,1-2.13-2.209A2.184,2.184,0,0,1,97.027,98.9a2.556,2.556,0,0,1,1.1.237l-.2.592a2.213,2.213,0,0,0-.907-.2,1.522,1.522,0,0,0-1.538,1.656,1.483,1.483,0,0,0,1.5,1.617,2.438,2.438,0,0,0,.947-.2Z" transform="translate(-78.294 -97.165)"/>
      <path id="Path_9" data-name="Path 9" class="cls-1" d="M115.02,96.5v1.025h1.1v.592h-1.1v2.327c0,.552.158.828.592.828a1.626,1.626,0,0,0,.473-.039l.039.592a2.612,2.612,0,0,1-.71.118,1.068,1.068,0,0,1-.828-.316,1.8,1.8,0,0,1-.316-1.144V98.117h-.67v-.592h.67v-.789Z" transform="translate(-89.74 -95.711)"/>
      <path id="Path_10" data-name="Path 10" class="cls-1" d="M131.573,95.525a.489.489,0,0,1-.473-.513.513.513,0,0,1,1.025,0,.558.558,0,0,1-.552.513Zm-.355,5.127V96.314h.789v4.3h-.789Z" transform="translate(-100.338 -94.5)"/>
      <path id="Path_11" data-name="Path 11" class="cls-1" d="M146.951,103.4a2.055,2.055,0,0,1-2.051-2.209,2.094,2.094,0,0,1,2.13-2.287,2.063,2.063,0,0,1,2.09,2.209,2.12,2.12,0,0,1-2.169,2.287Zm.039-.592c.749,0,1.3-.71,1.3-1.7,0-.749-.355-1.656-1.3-1.656-.907,0-1.3.868-1.3,1.656,0,.986.552,1.7,1.3,1.7Z" transform="translate(-108.696 -97.165)"/>
      <path id="Path_12" data-name="Path 12" class="cls-1" d="M167.039,100.162A10.721,10.721,0,0,0,167,98.979h.71l.039.71h0a1.574,1.574,0,0,1,1.42-.789c.592,0,1.538.355,1.538,1.854v2.563h-.789v-2.485c0-.71-.276-1.3-.986-1.3a1.15,1.15,0,0,0-1.065.789.979.979,0,0,0-.039.355v2.6h-.789Z" transform="translate(-122.08 -97.165)"/>
    </g>
  </g>
</svg>
