<svg xmlns="http://www.w3.org/2000/svg" viewBox="78 754 597.358 286.971">
  <defs>
    <style>
      .cls-1 {
        opacity: 0.295;
      }

      .cls-2 {
        fill: #44606b;
      }
    </style>
  </defs>
  <g id="lebel_auction-shadow" class="cls-1" transform="translate(78 754)">
    <g id="Group_1" data-name="Group 1">
      <path id="Path_1" data-name="Path 1" class="cls-2" d="M44.75,175.357V0H.781V18.472H22.635V175.357H0v18.472H65.564V175.357Z"/>
      <path id="Path_2" data-name="Path 2" class="cls-2" d="M248.89,175.357V0H204.92V18.472h22.115V175.357H204.4v18.472h65.564V175.357Z" transform="translate(327.394)"/>
      <path id="Path_3" data-name="Path 3" class="cls-2" d="M130.107,119.142a44.383,44.383,0,0,1-35.123,17.171,45.271,45.271,0,1,1,43.969-55.157H94.723V100.67h64.523V91.043c0-35.9-28.879-65.043-64.523-65.043a64.784,64.784,0,1,0,58.019,92.882H130.107Z" transform="translate(48.372 41.645)"/>
      <path id="Path_4" data-name="Path 4" class="cls-2" d="M249.646,118.983a44.383,44.383,0,0,1-35.124,17.171A45.271,45.271,0,1,1,258.492,81H214.523v19.513h64.523V90.884A64.568,64.568,0,0,0,214.523,26.1C178.879,25.841,150,54.98,150,90.624a64.407,64.407,0,0,0,122.542,28.1h-22.9Z" transform="translate(240.26 41.804)"/>
      <path id="Path_5" data-name="Path 5" class="cls-2" d="M170.777,67.645a63.579,63.579,0,0,0-40.327,14.31V0H86.48V18.472h21.855V175.357H85.7v18.472h44.75V112.655A45.018,45.018,0,1,1,170.777,177.7,42.6,42.6,0,0,1,151,173.015h0v21.074A64.735,64.735,0,1,0,170.777,67.645Z" transform="translate(137.268)"/>
    </g>
    <g id="Group_2" data-name="Group 2" transform="translate(138.152 245.864)">
      <path id="Path_6" data-name="Path 6" class="cls-2" d="M75.475,121.015a26.45,26.45,0,0,0,.52,6.765H71.052l-.52-3.643h-.26a10.224,10.224,0,0,1-8.586,4.163c-5.724,0-8.586-4.163-8.586-8.065,0-6.765,6.244-10.667,17.171-10.667v-.52c0-2.342-.52-6.764-6.5-6.5a14.922,14.922,0,0,0-7.545,2.082l-1.3-3.382A17.244,17.244,0,0,1,64.288,98.9c8.846,0,10.927,5.984,10.927,11.708v10.407Zm-5.2-7.545c-5.724,0-11.968.78-11.968,6.5a4.635,4.635,0,0,0,4.943,4.943,7.332,7.332,0,0,0,7.025-4.683,3.3,3.3,0,0,0,.26-1.561v-5.2Z" transform="translate(-53.1 -87.452)"/>
      <path id="Path_7" data-name="Path 7" class="cls-2" d="M97.736,119.914a73.182,73.182,0,0,0,.26,7.805H93.313l-.26-4.683h0a10.566,10.566,0,0,1-9.366,5.2c-4.423,0-9.886-2.6-9.886-12.488V99.1H79v15.61c0,5.464,1.821,9.106,6.244,9.106a7.234,7.234,0,0,0,6.765-4.683,7.7,7.7,0,0,0,.52-2.6V99.1h5.2Z" transform="translate(-19.944 -87.132)"/>
      <path id="Path_8" data-name="Path 8" class="cls-2" d="M116.815,127a22.783,22.783,0,0,1-8.065,1.561c-8.586,0-14.049-5.724-14.049-14.57s5.984-15.09,15.35-15.09a16.865,16.865,0,0,1,7.285,1.561l-1.3,3.9a14.6,14.6,0,0,0-5.984-1.3c-6.5,0-10.147,4.943-10.147,10.927,0,6.5,4.163,10.667,9.887,10.667a16.087,16.087,0,0,0,6.244-1.3Z" transform="translate(13.532 -87.452)"/>
      <path id="Path_9" data-name="Path 9" class="cls-2" d="M122.966,96.5v6.765h7.285v3.9h-7.285v15.35c0,3.642,1.041,5.464,3.9,5.464a10.724,10.724,0,0,0,3.122-.26l.26,3.9a17.226,17.226,0,0,1-4.683.781,7.045,7.045,0,0,1-5.463-2.081c-1.3-1.561-2.082-4.163-2.082-7.545v-15.61H113.6v-3.9h4.423v-5.2Z" transform="translate(43.805 -91.297)"/>
      <path id="Path_10" data-name="Path 10" class="cls-2" d="M134.222,101.265a3.226,3.226,0,0,1-3.122-3.382,3.382,3.382,0,0,1,6.764,0,3.682,3.682,0,0,1-3.643,3.382Zm-2.342,33.822V106.468h5.2v28.359h-5.2Z" transform="translate(71.835 -94.5)"/>
      <path id="Path_11" data-name="Path 11" class="cls-2" d="M158.429,128.56c-7.545,0-13.529-5.724-13.529-14.57,0-9.626,6.244-15.09,14.049-15.09,8.065,0,13.789,5.984,13.789,14.57,0,10.407-7.285,15.09-14.309,15.09Zm.26-3.9c4.943,0,8.586-4.683,8.586-11.187,0-4.943-2.341-10.927-8.586-10.927-5.984,0-8.586,5.724-8.586,10.927,0,6.5,3.642,11.187,8.586,11.187Z" transform="translate(93.939 -87.452)"/>
      <path id="Path_12" data-name="Path 12" class="cls-2" d="M167.26,107.226A70.684,70.684,0,0,0,167,99.42h4.683l.26,4.683h0a10.386,10.386,0,0,1,9.366-5.2c3.9,0,10.147,2.342,10.147,12.228v16.911h-5.2V111.648c0-4.683-1.821-8.586-6.5-8.586a7.588,7.588,0,0,0-7.025,5.2,6.459,6.459,0,0,0-.26,2.342v17.171h-5.2Z" transform="translate(129.337 -87.452)"/>
    </g>
  </g>
</svg>
